#!OML:ASF F:\VICON\USERDATA\INSTALL\rory3\rory3.ASF
:FULLY-SPECIFIED
:DEGREES
2011
root -4.03998 18.5281 4.65817 -664.057 -103.847 661.99
lowerback 4.47309 -1.05645 -5.48851
upperback -3.9161 -1.61875 9.38563
thorax -6.30229 -0.41984 13.6356
lowerneck -23.7086 0.0979409 -15.5698
upperneck -1.42722 3.00602 13.5194
head 2.85069 2.04897 7.10367
rclavicle -5.80451e-014 9.54166e-014
rhumerus -35.9948 34.4067 -70.3819
rradius 75.2976
rwrist -15.6228
rhand -18.4679 9.90663
rfingers 7.12502
rthumb 7.8187 -19.9288
lclavicle -5.80451e-014 9.54166e-014
lhumerus 60.928 43.148 22.2263
lradius 22.2573
lwrist -13.4157
lhand -13.682 38.5851
lfingers 7.12502
lthumb 12.4357 68.1952
rfemur -0.596056 12.2761 -3.53674
rtibia 35.8768
rfoot 17.8786 -9.83139
rtoes 5.34803
lfemur -6.69259 0.0936119 -29.9835
ltibia 19.5573
lfoot 13.1213 6.44704
ltoes -25.7331
2012
root -4.12212 18.496 4.71835 -663.838 -103.839 661.787
lowerback 4.24011 -1.43224 -5.77539
upperback -3.9621 -2.15167 9.64354
thorax -6.05874 -0.688616 14.1531
lowerneck -23.7471 0.352375 -15.5822
upperneck -1.2006 3.33575 13.5172
head 2.8754 2.21143 7.13311
rclavicle 2.0276e-014 -9.22361e-014
rhumerus -35.557 29.2992 -68.5861
rradius 70.5252
rwrist -13.7309
rhand -21.3421 8.71959
rfingers 7.12502
rthumb 5.04405 -21.2004
lclavicle 2.0276e-014 -9.22361e-014
lhumerus 60.5594 43.5851 22.6802
lradius 22.1819
lwrist -13.7961
lhand -14.2763 38.2538
lfingers 7.12502
lthumb 11.8627 67.8977
rfemur -0.650897 12.5239 -3.71569
rtibia 36.196
rfoot 18.4227 -9.63338
rtoes 3.87074
lfemur -6.31396 0.628541 -30.1241
ltibia 19.4836
lfoot 11.9278 5.27678
ltoes -26.86
2013
root -4.20161 18.4716 4.77645 -663.883 -103.819 661.852
lowerback 4.09176 -1.7864 -6.058
upperback -4.08943 -2.65585 9.91658
thorax -5.95082 -0.932849 14.6942
lowerneck -23.4188 0.660698 -15.5677
upperneck -1.18063 3.69737 13.4521
head 2.7812 2.37819 7.12502
rclavicle -1.86858e-014 4.13472e-014
rhumerus -35.068 23.9789 -66.4304
rradius 65.8727
rwrist -10.6936
rhand -23.8774 8.00222
rfingers 7.12502
rthumb 2.59581 -21.9617
lclavicle -1.86858e-014 4.13472e-014
lhumerus 60.25 43.919 23.3307
lradius 22.1136
lwrist -14.3978
lhand -14.9327 38.3337
lfingers 7.12502
lthumb 11.2296 68.0132
rfemur -0.720265 12.9821 -3.79252
rtibia 36.4999
rfoot 18.9606 -9.78773
rtoes 2.87066
lfemur -5.97183 1.20062 -30.2134
ltibia 19.4654
lfoot 10.7825 4.40304
ltoes -27.6222
2014
root -4.28015 18.4542 4.83043 -664.623 -103.63 662.575
lowerback 3.92392 -2.09154 -6.16973
upperback -4.15418 -3.08802 10.255
thorax -5.77942 -1.15839 15.1953
lowerneck -23.2428 0.888082 -15.5433
upperneck -1.04551 3.96243 13.4489
head 2.7583 2.50475 7.13491
rclavicle -8.5875e-014 1.01778e-013
rhumerus -34.4943 18.2139 -63.8378
rradius 61.6017
rwrist -7.07713
rhand -25.9192 7.38619
rfingers 7.12502
rthumb 0.623782 -22.5926
lclavicle -8.5875e-014 1.01778e-013
lhumerus 59.9343 44.2025 23.9187
lradius 21.9944
lwrist -15.0014
lhand -15.8176 38.5792
lfingers 7.12502
lthumb 10.3761 68.3032
rfemur -0.684926 13.869 -3.49951
rtibia 36.7726
rfoot 19.1914 -10.266
rtoes 3.00617
lfemur -5.57904 1.39131 -30.0858
ltibia 19.4924
lfoot 9.8133 3.77848
ltoes -28.1423
2015
root -4.35474 18.4297 4.88383 -665.226 -103.639 663.102
lowerback 3.84971 -2.2482 -6.31622
upperback -4.19111 -3.31544 10.3908
thorax -5.69575 -1.27269 15.4639
lowerneck -23.1257 0.960724 -15.4465
upperneck -0.934435 4.01079 13.5087
head 2.77066 2.52943 7.14088
rclavicle -2.10712e-014 6.36111e-015
rhumerus -34.0891 12.2092 -60.9615
rradius 57.821
rwrist -3.93794
rhand -27.4128 7.16585
rfingers 7.12502
rthumb -0.818768 -22.8123
lclavicle -2.10712e-014 6.36111e-015
lhumerus 60.4746 44.4101 25.2535
lradius 21.7192
lwrist -16.06
lhand -16.9333 38.4965
lfingers 7.12502
lthumb 9.29971 68.2714
rfemur -0.674774 14.5426 -3.52817
rtibia 37.0471
rfoot 19.5687 -10.4517
rtoes 3.47382
lfemur -5.18976 1.56449 -30.1525
ltibia 19.5415
lfoot 8.86157 3.38219
ltoes -28.1304
2016
root -4.42968 18.4044 4.93539 -665.859 -103.683 663.647
lowerback 3.7254 -2.31984 -6.45355
upperback -4.17015 -3.42614 10.5007
thorax -5.55601 -1.335 15.6799
lowerneck -22.9445 0.968949 -15.3977
upperneck -0.978727 3.99718 13.3857
head 2.73489 2.5121 7.08435
rclavicle -4.37326e-015 5.40694e-014
rhumerus -33.654 5.86196 -57.6372
rradius 54.414
rwrist -1.60513
rhand -27.7162 7.03477
rfingers 7.12502
rthumb -1.11182 -22.9421
lclavicle -4.37326e-015 5.40694e-014
lhumerus 61.2416 44.5374 26.7913
lradius 21.3775
lwrist -17.2616
lhand -18.3449 38.2888
lfingers 7.12502
lthumb 7.93748 68.1198
rfemur -0.658682 14.9298 -3.6386
rtibia 37.3146
rfoot 20.2452 -10.1863
rtoes 2.58343
lfemur -4.81038 1.79328 -30.26
ltibia 19.5907
lfoot 8.08239 3.1094
ltoes -28.0933
2017
root -4.50504 18.3903 4.98825 -667.192 -103.657 664.886
lowerback 3.57778 -2.36382 -6.40163
upperback -4.0977 -3.49192 10.6609
thorax -5.36611 -1.39096 15.8286
lowerneck -22.7944 0.988799 -15.3584
upperneck -1.06906 4.01027 13.1722
head 2.68539 2.5033 7.00085
rclavicle 2.90226e-014 -1.46306e-013
rhumerus -33.7552 -0.450961 -54.1938
rradius 51.9745
rwrist -0.363925
rhand -26.8862 6.64068
rfingers 7.12502
rthumb -0.310168 -23.3388
lclavicle 2.90226e-014 -1.46306e-013
lhumerus 61.2953 44.4973 27.4707
lradius 21.1926
lwrist -18.152
lhand -19.4898 38.4264
lfingers 7.12502
lthumb 6.83236 68.2961
rfemur -0.597732 15.6742 -3.46909
rtibia 37.5889
rfoot 20.7148 -9.88835
rtoes 1.53568
lfemur -4.39274 1.95595 -30.2685
ltibia 19.6015
lfoot 7.52164 3.05609
ltoes -29.1138
2018
root -4.57843 18.3746 5.04403 -668.008 -103.738 665.464
lowerback 3.59611 -2.45921 -6.47418
upperback -3.99475 -3.63431 10.7356
thorax -5.21209 -1.47752 15.9661
lowerneck -22.8086 1.01621 -15.2795
upperneck -1.09357 4.02757 13.1027
head 2.67938 2.50666 6.9655
rclavicle 1.35174e-014 -1.145e-013
rhumerus -34.3511 -6.18682 -50.8283
rradius 50.371
rwrist -1.34846
rhand -25.5467 6.15745
rfingers 7.12502
rthumb 0.983583 -23.82
lclavicle 1.35174e-014 -1.145e-013
lhumerus 59.8605 44.1776 26.2253
lradius 21.32
lwrist -17.9251
lhand -20.3609 38.804
lfingers 7.12502
lthumb 5.99141 68.6993
rfemur -0.357932 16.2385 -3.55918
rtibia 37.8398
rfoot 21.0309 -9.80276
rtoes 2.69609
lfemur -3.86309 2.01076 -30.4989
ltibia 19.6416
lfoot 7.02427 3.17872
ltoes -29.5167
2019
root -4.64961 18.3564 5.09938 -668.187 -103.948 665.363
lowerback 3.63894 -2.53328 -6.70272
upperback -3.9199 -3.75281 10.7457
thorax -5.10538 -1.53915 16.1275
lowerneck -22.6516 1.03671 -15.2717
upperneck -1.20819 4.03946 13.0339
head 2.62076 2.50453 6.93541
rclavicle -5.56597e-015 -3.81667e-014
rhumerus -35.2989 -11.1653 -47.3642
rradius 49.3586
rwrist -4.47182
rhand -24.4672 5.9621
rfingers 7.12502
rthumb 2.02619 -24.008
lclavicle -5.56597e-015 -3.81667e-014
lhumerus 58.0488 43.6894 24.5764
lradius 21.5034
lwrist -17.4129
lhand -21.5968 38.5233
lfingers 7.12502
lthumb 4.7981 68.4489
rfemur -0.093409 16.4576 -3.95559
rtibia 38.0693
rfoot 21.4229 -9.55538
rtoes 4.2291
lfemur -3.31871 1.92153 -30.9551
ltibia 19.6719
lfoot 6.6301 3.6151
ltoes -28.2929
2020
root -4.72206 18.3432 5.15473 -668.289 -104.142 665.376
lowerback 3.51573 -2.6292 -6.85334
upperback -3.90215 -3.89083 10.7319
thorax -4.9631 -1.61519 16.1976
lowerneck -22.5976 1.07127 -15.134
upperneck -1.20535 4.04101 13.022
head 2.61717 2.50247 6.90742
rclavicle 3.4191e-014 4.45278e-014
rhumerus -36.4331 -15.1747 -44.0391
rradius 48.8519
rwrist -9.00135
rhand -23.804 5.58279
rfingers 7.12502
rthumb 2.66666 -24.3803
lclavicle 3.4191e-014 4.45278e-014
lhumerus 55.5204 42.8791 21.8807
lradius 21.782
lwrist -16.5236
lhand -22.4675 38.3267
lfingers 7.12502
lthumb 3.95733 68.2697
rfemur -0.0347276 16.5779 -4.35431
rtibia 38.2857
rfoot 21.824 -9.40193
rtoes 5.65825
lfemur -2.99757 2.08996 -31.3705
ltibia 19.6877
lfoot 6.26781 3.70832
ltoes -28.1343
2021
root -4.78943 18.3395 5.21259 -669.209 -104.379 666.141
lowerback 3.59787 -2.62899 -6.90865
upperback -3.87816 -3.89787 10.7367
thorax -4.97894 -1.61659 16.2457
lowerneck -22.5538 1.0652 -15.2484
upperneck -1.20032 4.04337 13.238
head 2.60881 2.51351 6.99776
rclavicle 1.15295e-014 6.04305e-014
rhumerus -37.6985 -18.2118 -40.7774
rradius 48.6853
rwrist -14.1856
rhand -23.5088 4.9515
rfingers 7.12502
rthumb 2.95174 -25.0078
lclavicle 1.15295e-014 6.04305e-014
lhumerus 53.3053 41.9379 19.4669
lradius 21.944
lwrist -15.7917
lhand -22.958 37.9443
lfingers 7.12502
lthumb 3.48363 67.8956
rfemur -0.0159748 16.8195 -4.71298
rtibia 38.4932
rfoot 22.2232 -9.49538
rtoes 6.69181
lfemur -2.5799 2.08866 -31.7454
ltibia 19.6595
lfoot 6.04181 4.12913
ltoes -28.5529
2022
root -4.85729 18.3398 5.2685 -670.359 -104.501 667.21
lowerback 3.62329 -2.61124 -6.79841
upperback -3.92657 -3.87013 10.7701
thorax -5.05954 -1.59999 16.2225
lowerneck -22.305 1.12718 -15.2455
upperneck -1.27631 4.09531 13.2905
head 2.54263 2.53657 7.00982
rclavicle -2.10712e-014 1.20861e-013
rhumerus -39.1377 -20.4208 -37.6017
rradius 48.723
rwrist -18.6489
rhand -24.0601 4.43046
rfingers 7.12502
rthumb 2.41933 -25.5356
lclavicle -2.10712e-014 1.20861e-013
lhumerus 51.6373 41.0254 17.7486
lradius 22.0603
lwrist -15.4799
lhand -23.1868 37.1899
lfingers 7.12502
lthumb 3.26268 67.1447
rfemur -0.0669957 16.8605 -4.95745
rtibia 38.6813
rfoot 22.7177 -9.54891
rtoes 7.07206
lfemur -2.21434 2.20911 -31.9438
ltibia 19.5936
lfoot 5.93989 4.31086
ltoes -29.3509
2023
root -4.92543 18.3424 5.32024 -671.411 -104.569 668.145
lowerback 3.67449 -2.574 -6.76636
upperback -3.99105 -3.8245 10.882
thorax -5.17058 -1.56836 16.3522
lowerneck -21.9093 1.14116 -15.3679
upperneck -1.45229 4.11053 13.2402
head 2.42755 2.53389 6.99985
rclavicle -3.97569e-015 6.04305e-014
rhumerus -40.4746 -21.8803 -34.4661
rradius 48.8229
rwrist -21.6045
rhand -25.3667 3.87004
rfingers 7.12502
rthumb 1.15741 -26.1066
lclavicle -3.97569e-015 6.04305e-014
lhumerus 50.4856 40.2805 16.9586
lradius 22.1716
lwrist -15.6664
lhand -23.4885 36.7088
lfingers 7.12502
lthumb 2.97138 66.6679
rfemur -0.0556566 16.6053 -5.15732
rtibia 38.8476
rfoot 23.3897 -9.3286
rtoes 6.09151
lfemur -1.81323 2.36224 -32.0564
ltibia 19.4883
lfoot 5.95618 4.41272
ltoes -29.4813
2024
root -4.99055 18.3457 5.36983 -672.742 -104.677 669.277
lowerback 3.82495 -2.50301 -6.75204
upperback -4.00213 -3.73626 10.9774
thorax -5.29491 -1.51499 16.4768
lowerneck -21.6854 1.08458 -15.5629
upperneck -1.57409 4.05687 13.3672
head 2.3614 2.50923 7.0631
rclavicle 5.00937e-014 2.54444e-014
rhumerus -41.6197 -22.875 -31.5762
rradius 48.9327
rwrist -22.716
rhand -27.0735 3.59258
rfingers 7.12502
rthumb -0.491043 -26.3866
lclavicle 5.00937e-014 2.54444e-014
lhumerus 49.8329 39.7974 16.7331
lradius 22.1806
lwrist -16.2531
lhand -23.8812 35.2689
lfingers 7.12502
lthumb 2.59208 65.2329
rfemur 0.0134864 16.3406 -5.34577
rtibia 38.9743
rfoot 23.9064 -9.02595
rtoes 4.69773
lfemur -1.34767 2.39891 -32.1264
ltibia 19.4125
lfoot 5.92941 4.70569
ltoes -28.7058
2025
root -5.05596 18.3596 5.41708 -674.091 -104.678 670.53
lowerback 3.90367 -2.48867 -6.72117
upperback -4.04329 -3.72735 11.1606
thorax -5.38137 -1.50591 16.7005
lowerneck -21.5065 1.12147 -15.7123
upperneck -1.60495 4.11912 13.4427
head 2.31307 2.54047 7.11113
rclavicle 4.8901e-014 -1.04958e-013
rhumerus -42.3402 -23.4612 -28.8597
rradius 48.8921
rwrist -22.6529
rhand -28.5009 3.93883
rfingers 7.12502
rthumb -1.86967 -26.0327
lclavicle 4.8901e-014 -1.04958e-013
lhumerus 49.0549 39.4351 16.4516
lradius 22.1748
lwrist -16.721
lhand -24.6879 31.5943
lfingers 7.12502
lthumb 1.81303 61.5664
rfemur -0.0247156 15.978 -5.4361
rtibia 39.106
rfoot 24.472 -8.87172
rtoes 4.41944
lfemur -0.999888 2.37844 -32.069
ltibia 19.2948
lfoot 6.00691 4.7149
ltoes -28.3264
